<svg width="15" height="12" viewBox="0 0 15 12" fill="none" xmlns="http://www.w3.org/2000/svg">
<path d="M0.9375 1.6875C0.9375 1.18945 1.34766 0.75 1.875 0.75H13.125C13.623 0.75 14.0625 1.18945 14.0625 1.6875C14.0625 2.21484 13.623 2.625 13.125 2.625H1.875C1.34766 2.625 0.9375 2.21484 0.9375 1.6875ZM0.9375 6.375C0.9375 5.87695 1.34766 5.4375 1.875 5.4375H13.125C13.623 5.4375 14.0625 5.87695 14.0625 6.375C14.0625 6.90234 13.623 7.3125 13.125 7.3125H1.875C1.34766 7.3125 0.9375 6.90234 0.9375 6.375ZM13.125 12H1.875C1.34766 12 0.9375 11.5898 0.9375 11.0625C0.9375 10.5645 1.34766 10.125 1.875 10.125H13.125C13.623 10.125 14.0625 10.5645 14.0625 11.0625C14.0625 11.5898 13.623 12 13.125 12Z" fill="black"/>
</svg>
